<svg width="173" height="43" viewBox="0 0 173 43" fill="none" xmlns="http://www.w3.org/2000/svg">
<path d="M16.5039 34H13.5156V8.30078H27.8242V10.9375H16.5039V20.3594H27.1387V22.9785H16.5039V34ZM38.5609 14.418C40.8577 14.418 42.5628 14.9336 43.6761 15.9648C44.7894 16.9961 45.346 18.6426 45.346 20.9043V34H43.2191L42.6566 31.1523H42.5159C41.9769 31.8555 41.4144 32.4473 40.8284 32.9277C40.2425 33.3965 39.5628 33.7539 38.7894 34C38.0277 34.2344 37.0902 34.3516 35.9769 34.3516C34.805 34.3516 33.762 34.1465 32.848 33.7363C31.9456 33.3262 31.2308 32.7051 30.7034 31.873C30.1878 31.041 29.93 29.9863 29.93 28.709C29.93 26.7871 30.6917 25.3105 32.2152 24.2793C33.7386 23.248 36.0589 22.6855 39.1761 22.5918L42.4984 22.4512V21.2734C42.4984 19.6094 42.1409 18.4434 41.4261 17.7754C40.7113 17.1074 39.7034 16.7734 38.4027 16.7734C37.3948 16.7734 36.4339 16.9199 35.5198 17.2129C34.6058 17.5059 33.7386 17.8516 32.9183 18.25L32.0218 16.0352C32.889 15.5898 33.8851 15.209 35.0101 14.8926C36.1351 14.5762 37.3187 14.418 38.5609 14.418ZM42.4632 24.5078L39.5277 24.6309C37.1253 24.7246 35.432 25.1172 34.4476 25.8086C33.4632 26.5 32.971 27.4785 32.971 28.7441C32.971 29.8457 33.305 30.6602 33.973 31.1875C34.6409 31.7148 35.5257 31.9785 36.6273 31.9785C38.3382 31.9785 39.7386 31.5039 40.8284 30.5547C41.9183 29.6055 42.4632 28.1816 42.4632 26.2832V24.5078ZM47.9967 14.7344H51.1256L55.3795 25.9141C55.6256 26.5703 55.8541 27.2031 56.0651 27.8125C56.276 28.4102 56.4635 28.9844 56.6276 29.5352C56.7916 30.0859 56.9205 30.6191 57.0143 31.1348H57.1373C57.3014 30.5488 57.5358 29.7812 57.8405 28.832C58.1452 27.8711 58.4733 26.8926 58.8248 25.8965L62.8502 14.7344H65.9967L57.612 36.8301C57.1666 38.0137 56.6452 39.0449 56.0475 39.9238C55.4616 40.8027 54.7467 41.4766 53.903 41.9453C53.0592 42.4258 52.0397 42.666 50.8444 42.666C50.2936 42.666 49.8073 42.6309 49.3854 42.5605C48.9635 42.502 48.6002 42.4316 48.2955 42.3496V40.0117C48.5534 40.0703 48.8639 40.123 49.2272 40.1699C49.6022 40.2168 49.9889 40.2402 50.3873 40.2402C51.1139 40.2402 51.7409 40.0996 52.2682 39.8184C52.8073 39.5488 53.2702 39.1504 53.6569 38.623C54.0436 38.0957 54.3776 37.4688 54.6588 36.7422L55.7135 34.0352L47.9967 14.7344ZM71.0556 8.30078L71.3193 8.6875C71.1084 9.54297 70.8388 10.4629 70.5107 11.4473C70.1826 12.4199 69.8252 13.3926 69.4384 14.3652C69.0517 15.3379 68.665 16.252 68.2783 17.1074H66.1338C66.3095 16.4395 66.4853 15.7246 66.6611 14.9629C66.8486 14.2012 67.0244 13.4277 67.1884 12.6426C67.3525 11.8574 67.499 11.0957 67.6279 10.3574C67.7685 9.61914 67.8857 8.93359 67.9795 8.30078H71.0556ZM87.013 28.7266C87.013 29.957 86.7024 30.9941 86.0813 31.8379C85.472 32.6699 84.593 33.2969 83.4446 33.7188C82.3079 34.1406 80.9485 34.3516 79.3665 34.3516C78.0188 34.3516 76.8528 34.2461 75.8684 34.0352C74.8841 33.8242 74.0227 33.5254 73.2845 33.1387V30.4492C74.0696 30.8359 75.0071 31.1875 76.097 31.5039C77.1868 31.8203 78.3001 31.9785 79.4368 31.9785C81.1009 31.9785 82.3079 31.709 83.0579 31.1699C83.8079 30.6309 84.1829 29.8984 84.1829 28.9727C84.1829 28.4453 84.0305 27.9824 83.7259 27.584C83.4329 27.1738 82.9348 26.7812 82.2317 26.4062C81.5286 26.0195 80.5559 25.5977 79.3138 25.1406C78.0833 24.6719 77.0169 24.209 76.1145 23.752C75.2239 23.2832 74.5325 22.7148 74.0403 22.0469C73.5598 21.3789 73.3196 20.5117 73.3196 19.4453C73.3196 17.8164 73.9759 16.5684 75.2884 15.7012C76.6126 14.8223 78.347 14.3828 80.4915 14.3828C81.6516 14.3828 82.7356 14.5 83.7434 14.7344C84.763 14.957 85.7122 15.2617 86.5911 15.6484L85.6067 17.9863C84.8098 17.6465 83.9602 17.3594 83.0579 17.125C82.1555 16.8906 81.2356 16.7734 80.2981 16.7734C78.9505 16.7734 77.9134 16.9961 77.1868 17.4414C76.472 17.8867 76.1145 18.4961 76.1145 19.2695C76.1145 19.8672 76.2786 20.3594 76.6067 20.7461C76.9466 21.1328 77.4856 21.4961 78.2239 21.8359C78.9622 22.1758 79.9348 22.5742 81.1419 23.0312C82.3489 23.4766 83.3919 23.9395 84.2708 24.4199C85.1497 24.8887 85.8235 25.4629 86.2923 26.1426C86.7727 26.8105 87.013 27.6719 87.013 28.7266Z" fill="black"/>
<path d="M103.336 6.64844V14.8223C103.336 15.291 103.324 15.7656 103.301 16.2461C103.277 16.7148 103.236 17.1484 103.178 17.5469H103.371C103.769 16.8672 104.273 16.2988 104.883 15.8418C105.504 15.373 106.207 15.0215 106.992 14.7871C107.777 14.541 108.609 14.418 109.488 14.418C111.035 14.418 112.324 14.6641 113.355 15.1562C114.398 15.6484 115.178 16.4102 115.693 17.4414C116.221 18.4727 116.484 19.8086 116.484 21.4492V34H113.601V21.6426C113.601 20.0371 113.232 18.8359 112.494 18.0391C111.768 17.2422 110.648 16.8438 109.137 16.8438C107.707 16.8438 106.564 17.1191 105.709 17.6699C104.865 18.209 104.256 19.0059 103.881 20.0605C103.518 21.1152 103.336 22.4043 103.336 23.9277V34H100.418V6.64844H103.336ZM138.084 14.7344V34H135.694L135.272 31.293H135.114C134.715 31.9609 134.199 32.5234 133.567 32.9805C132.934 33.4375 132.219 33.7773 131.422 34C130.637 34.2344 129.799 34.3516 128.908 34.3516C127.385 34.3516 126.108 34.1055 125.076 33.6133C124.045 33.1211 123.266 32.3594 122.739 31.3281C122.223 30.2969 121.965 28.9727 121.965 27.3555V14.7344H124.918V27.1445C124.918 28.75 125.281 29.9512 126.008 30.748C126.735 31.5332 127.842 31.9258 129.33 31.9258C130.76 31.9258 131.897 31.6562 132.74 31.1172C133.596 30.5781 134.211 29.7871 134.586 28.7441C134.961 27.6895 135.149 26.4004 135.149 24.877V14.7344H138.084ZM146.852 6.64844V13.4863C146.852 14.2715 146.829 15.0332 146.782 15.7715C146.747 16.5098 146.717 17.084 146.694 17.4941H146.852C147.379 16.627 148.141 15.8945 149.137 15.2969C150.133 14.6992 151.405 14.4004 152.952 14.4004C155.366 14.4004 157.288 15.2383 158.717 16.9141C160.159 18.5781 160.879 21.0566 160.879 24.3496C160.879 26.5176 160.551 28.3457 159.895 29.834C159.239 31.3223 158.313 32.4473 157.118 33.209C155.922 33.9707 154.51 34.3516 152.881 34.3516C151.358 34.3516 150.104 34.0703 149.12 33.5078C148.147 32.9336 147.397 32.2363 146.87 31.416H146.641L146.044 34H143.934V6.64844H146.852ZM152.477 16.8438C151.083 16.8438 149.975 17.1191 149.155 17.6699C148.335 18.209 147.743 19.0293 147.379 20.1309C147.028 21.2207 146.852 22.6035 146.852 24.2793V24.4375C146.852 26.8633 147.256 28.7207 148.065 30.0098C148.874 31.2871 150.344 31.9258 152.477 31.9258C154.27 31.9258 155.612 31.2695 156.503 29.957C157.405 28.6445 157.856 26.7695 157.856 24.332C157.856 21.8477 157.411 19.9785 156.52 18.7246C155.641 17.4707 154.294 16.8438 152.477 16.8438Z" fill="#2D3B57"/>
</svg>
