<svg width="240" height="53" viewBox="0 0 240 53" fill="none" xmlns="http://www.w3.org/2000/svg">
<path d="M9.88867 40H0.0117188V2.87891H21.9492V10.9277H9.88867V18.0117H21.0098V26.0605H9.88867V40ZM41.18 10.7246C44.8193 10.7246 47.6631 11.6302 49.7113 13.4414C51.7594 15.2357 52.7835 17.8001 52.7835 21.1348V40H45.9027L43.9984 36.1914H43.7952C42.9827 37.207 42.1448 38.0365 41.2816 38.6797C40.4352 39.306 39.4619 39.763 38.3616 40.0508C37.2614 40.3555 35.9157 40.5078 34.3245 40.5078C32.6657 40.5078 31.1761 40.1693 29.8558 39.4922C28.5355 38.8151 27.4945 37.791 26.7327 36.4199C25.971 35.0488 25.5902 33.3138 25.5902 31.2148C25.5902 28.1341 26.6566 25.849 28.7894 24.3594C30.9222 22.8698 34.0114 22.0319 38.057 21.8457L42.8558 21.6934V21.2871C42.8558 20.0007 42.5342 19.0866 41.8909 18.5449C41.2646 18.0033 40.4183 17.7324 39.3519 17.7324C38.2178 17.7324 36.9482 17.9355 35.5433 18.3418C34.1553 18.7311 32.7588 19.2389 31.3538 19.8652L28.4847 13.3145C30.1435 12.4681 32.0224 11.8249 34.1214 11.3848C36.2204 10.9447 38.5732 10.7246 41.18 10.7246ZM42.9066 27.1523L40.6214 27.2539C38.7933 27.3216 37.5068 27.6432 36.762 28.2188C36.0342 28.7773 35.6702 29.5814 35.6702 30.6309C35.6702 31.6126 35.9326 32.3405 36.4573 32.8145C36.9821 33.2715 37.6761 33.5 38.5394 33.5C39.7412 33.5 40.7653 33.1191 41.6116 32.3574C42.4749 31.5957 42.9066 30.6055 42.9066 29.3867V27.1523ZM55.7389 11.2324H66.1998L71.0748 27.7363C71.1426 27.9733 71.2103 28.2695 71.278 28.625C71.3457 28.9635 71.4049 29.3275 71.4557 29.7168C71.5065 30.1061 71.5403 30.487 71.5573 30.8594H71.7604C71.845 30.1654 71.9381 29.5645 72.0397 29.0566C72.1582 28.5319 72.2682 28.1087 72.3698 27.7871L77.3717 11.2324H87.5026L76.1276 41.8281C75.2474 44.1641 74.2233 46.1191 73.0553 47.6934C71.9043 49.2845 70.4739 50.4779 68.7643 51.2734C67.0716 52.0859 64.9642 52.4922 62.442 52.4922C61.528 52.4922 60.7409 52.4414 60.0807 52.3398C59.4375 52.2552 58.8704 52.1621 58.3795 52.0605V44.2656C58.7519 44.3333 59.209 44.401 59.7506 44.4688C60.2923 44.5365 60.8593 44.5703 61.4518 44.5703C62.5521 44.5703 63.4407 44.3503 64.1178 43.9102C64.8118 43.4701 65.3789 42.8861 65.819 42.1582C66.2591 41.4473 66.6399 40.6771 66.9616 39.8477L67.0631 39.5938L55.7389 11.2324ZM99.3193 2.92969L99.7002 3.48828C99.3955 4.74089 98.9977 6.23893 98.5068 7.98242C98.0159 9.70898 97.4827 11.444 96.9072 13.1875C96.3486 14.931 95.7815 16.446 95.206 17.7324H88.1474C88.4013 16.5475 88.6468 15.3118 88.8838 14.0254C89.1377 12.722 89.3746 11.4186 89.5947 10.1152C89.8147 8.81185 90.0094 7.55078 90.1787 6.33203C90.3649 5.09635 90.5172 3.96224 90.6357 2.92969H99.3193ZM124.695 31.1641C124.695 32.9922 124.288 34.6087 123.476 36.0137C122.663 37.4186 121.36 38.5189 119.566 39.3145C117.788 40.11 115.444 40.5078 112.533 40.5078C110.484 40.5078 108.648 40.3978 107.023 40.1777C105.415 39.9577 103.781 39.5345 102.122 38.9082V30.9609C103.934 31.7904 105.779 32.3913 107.658 32.7637C109.536 33.1191 111.018 33.2969 112.101 33.2969C113.218 33.2969 114.031 33.1784 114.538 32.9414C115.063 32.6875 115.325 32.3151 115.325 31.8242C115.325 31.401 115.148 31.0456 114.792 30.7578C114.454 30.4531 113.836 30.1061 112.939 29.7168C112.059 29.3275 110.814 28.8027 109.206 28.1426C107.615 27.4824 106.286 26.763 105.22 25.9844C104.171 25.2057 103.383 24.2747 102.859 23.1914C102.334 22.1081 102.072 20.7793 102.072 19.2051C102.072 16.3952 103.155 14.2793 105.322 12.8574C107.488 11.4355 110.357 10.7246 113.929 10.7246C115.825 10.7246 117.611 10.9362 119.286 11.3594C120.962 11.7656 122.697 12.3665 124.491 13.1621L121.775 19.5605C120.353 18.9173 118.914 18.401 117.458 18.0117C116.003 17.6224 114.843 17.4277 113.98 17.4277C113.201 17.4277 112.6 17.5293 112.177 17.7324C111.754 17.9355 111.542 18.2318 111.542 18.6211C111.542 18.9766 111.686 19.2897 111.974 19.5605C112.279 19.8314 112.846 20.1445 113.675 20.5C114.505 20.8555 115.715 21.3548 117.306 21.998C118.982 22.6751 120.361 23.403 121.445 24.1816C122.545 24.9434 123.357 25.8743 123.882 26.9746C124.424 28.0749 124.695 29.4714 124.695 31.1641ZM153.025 0.492188V6.10352C153.025 8.23633 152.975 10.0306 152.873 11.4863C152.788 12.9251 152.704 14.0254 152.619 14.7871H153.076C153.702 13.7884 154.413 12.9928 155.209 12.4004C156.004 11.8079 156.885 11.3848 157.85 11.1309C158.814 10.86 159.864 10.7246 160.998 10.7246C162.894 10.7246 164.603 11.0885 166.127 11.8164C167.667 12.5443 168.894 13.6868 169.809 15.2441C170.723 16.7845 171.18 18.7988 171.18 21.2871V40H161.201V24.3086C161.201 22.3958 160.922 20.957 160.363 19.9922C159.805 19.0104 158.941 18.5195 157.773 18.5195C156.572 18.5195 155.624 18.8665 154.93 19.5605C154.236 20.2376 153.745 21.2363 153.457 22.5566C153.169 23.86 153.025 25.4596 153.025 27.3555V40H143.098V0.492188H153.025ZM205.594 11.2324V40H198.104L196.86 36.4199H196.276C195.683 37.3848 194.93 38.1719 194.016 38.7812C193.119 39.3737 192.12 39.8053 191.02 40.0762C189.919 40.3639 188.777 40.5078 187.592 40.5078C185.713 40.5078 184.012 40.1439 182.489 39.416C180.982 38.6882 179.78 37.5456 178.883 35.9883C178.003 34.431 177.563 32.4251 177.563 29.9707V11.2324H187.49V26.9492C187.49 28.8112 187.753 30.2331 188.278 31.2148C188.819 32.1797 189.699 32.6621 190.918 32.6621C192.171 32.6621 193.136 32.3236 193.813 31.6465C194.507 30.9694 194.989 29.9707 195.26 28.6504C195.531 27.3301 195.666 25.722 195.666 23.8262V11.2324H205.594ZM222.057 0.492188V9.42969C222.057 10.4453 222.023 11.4186 221.956 12.3496C221.888 13.2637 221.803 14.127 221.702 14.9395H222.057C222.802 13.7715 223.775 12.7812 224.977 11.9688C226.179 11.1393 227.753 10.7246 229.7 10.7246C232.696 10.7246 235.142 11.9941 237.038 14.5332C238.95 17.0723 239.907 20.7454 239.907 25.5527C239.907 28.8197 239.467 31.5703 238.586 33.8047C237.706 36.0221 236.471 37.6979 234.879 38.832C233.305 39.9492 231.477 40.5078 229.395 40.5078C227.364 40.5078 225.815 40.1608 224.749 39.4668C223.699 38.7559 222.802 37.9941 222.057 37.1816H221.448L219.874 40H212.129V0.492188H222.057ZM226.069 18.5195C225.155 18.5195 224.402 18.7311 223.809 19.1543C223.217 19.5775 222.777 20.2376 222.489 21.1348C222.201 22.015 222.057 23.1406 222.057 24.5117V25.9082C222.057 28.1426 222.353 29.8014 222.946 30.8848C223.555 31.9681 224.63 32.5098 226.17 32.5098C227.338 32.5098 228.236 31.9089 228.862 30.707C229.488 29.5052 229.801 27.7533 229.801 25.4512C229.801 23.1491 229.497 21.4225 228.887 20.2715C228.278 19.1035 227.338 18.5195 226.069 18.5195Z" fill="white"/>
</svg>
