<svg width="156" height="205" viewBox="0 0 156 205" fill="none" xmlns="http://www.w3.org/2000/svg">
<g clip-path="url(#clip0_2001_426)">
<path d="M22 73.27L28.18 77L26.54 69.97L32 65.24L24.81 64.63L22 58L19.19 64.63L12 65.24L17.46 69.97L15.82 77L22 73.27Z" fill="#FFC804"/>
</g>
<g clip-path="url(#clip1_2001_426)">
<path d="M50 73.27L56.18 77L54.54 69.97L60 65.24L52.81 64.63L50 58L47.19 64.63L40 65.24L45.46 69.97L43.82 77L50 73.27Z" fill="#FFC804"/>
</g>
<g clip-path="url(#clip2_2001_426)">
<path d="M78 73.27L84.18 77L82.54 69.97L88 65.24L80.81 64.63L78 58L75.19 64.63L68 65.24L73.46 69.97L71.82 77L78 73.27Z" fill="#FFC804"/>
</g>
<g clip-path="url(#clip3_2001_426)">
<path d="M106 73.27L112.18 77L110.54 69.97L116 65.24L108.81 64.63L106 58L103.19 64.63L96 65.24L101.46 69.97L99.82 77L106 73.27Z" fill="#FFC804"/>
</g>
<g clip-path="url(#clip4_2001_426)">
<path d="M144 65.24L136.81 64.62L134 58L131.19 64.63L124 65.24L129.46 69.97L127.82 77L134 73.27L140.18 77L138.55 69.97L144 65.24ZM134 71.4L130.24 73.67L131.24 69.39L127.92 66.51L132.3 66.13L134 62.1L135.71 66.14L140.09 66.52L136.77 69.4L137.77 73.68L134 71.4Z" fill="#323232"/>
</g>
<g clip-path="url(#clip5_2001_426)">
<path d="M22 119.27L28.18 123L26.54 115.97L32 111.24L24.81 110.63L22 104L19.19 110.63L12 111.24L17.46 115.97L15.82 123L22 119.27Z" fill="#FFC804"/>
</g>
<g clip-path="url(#clip6_2001_426)">
<path d="M50 119.27L56.18 123L54.54 115.97L60 111.24L52.81 110.63L50 104L47.19 110.63L40 111.24L45.46 115.97L43.82 123L50 119.27Z" fill="#FFC804"/>
</g>
<g clip-path="url(#clip7_2001_426)">
<path d="M78 119.27L84.18 123L82.54 115.97L88 111.24L80.81 110.63L78 104L75.19 110.63L68 111.24L73.46 115.97L71.82 123L78 119.27Z" fill="#FFC804"/>
</g>
<g clip-path="url(#clip8_2001_426)">
<path d="M116 111.24L108.81 110.62L106 104L103.19 110.63L96 111.24L101.46 115.97L99.82 123L106 119.27L112.18 123L110.55 115.97L116 111.24ZM106 117.4L102.24 119.67L103.24 115.39L99.92 112.51L104.3 112.13L106 108.1L107.71 112.14L112.09 112.52L108.77 115.4L109.77 119.68L106 117.4Z" fill="#323232"/>
</g>
<g clip-path="url(#clip9_2001_426)">
<path d="M144 111.24L136.81 110.62L134 104L131.19 110.63L124 111.24L129.46 115.97L127.82 123L134 119.27L140.18 123L138.55 115.97L144 111.24ZM134 117.4L130.24 119.67L131.24 115.39L127.92 112.51L132.3 112.13L134 108.1L135.71 112.14L140.09 112.52L136.77 115.4L137.77 119.68L134 117.4Z" fill="#323232"/>
</g>
<g clip-path="url(#clip10_2001_426)">
<path d="M22 155.27L28.18 159L26.54 151.97L32 147.24L24.81 146.63L22 140L19.19 146.63L12 147.24L17.46 151.97L15.82 159L22 155.27Z" fill="#FFC804"/>
</g>
<g clip-path="url(#clip11_2001_426)">
<path d="M50 155.27L56.18 159L54.54 151.97L60 147.24L52.81 146.63L50 140L47.19 146.63L40 147.24L45.46 151.97L43.82 159L50 155.27Z" fill="#FFC804"/>
</g>
<g clip-path="url(#clip12_2001_426)">
<path d="M88 147.24L80.81 146.62L78 140L75.19 146.63L68 147.24L73.46 151.97L71.82 159L78 155.27L84.18 159L82.55 151.97L88 147.24ZM78 153.4L74.24 155.67L75.24 151.39L71.92 148.51L76.3 148.13L78 144.1L79.71 148.14L84.09 148.52L80.77 151.4L81.77 155.68L78 153.4Z" fill="#323232"/>
</g>
<g clip-path="url(#clip13_2001_426)">
<path d="M116 147.24L108.81 146.62L106 140L103.19 146.63L96 147.24L101.46 151.97L99.82 159L106 155.27L112.18 159L110.55 151.97L116 147.24ZM106 153.4L102.24 155.67L103.24 151.39L99.92 148.51L104.3 148.13L106 144.1L107.71 148.14L112.09 148.52L108.77 151.4L109.77 155.68L106 153.4Z" fill="#323232"/>
</g>
<g clip-path="url(#clip14_2001_426)">
<path d="M144 147.24L136.81 146.62L134 140L131.19 146.63L124 147.24L129.46 151.97L127.82 159L134 155.27L140.18 159L138.55 151.97L144 147.24ZM134 153.4L130.24 155.67L131.24 151.39L127.92 148.51L132.3 148.13L134 144.1L135.71 148.14L140.09 148.52L136.77 151.4L137.77 155.68L134 153.4Z" fill="#323232"/>
</g>
<g clip-path="url(#clip15_2001_426)">
<path d="M22 17.27L28.18 21L26.54 13.97L32 9.24L24.81 8.63L22 2L19.19 8.63L12 9.24L17.46 13.97L15.82 21L22 17.27Z" fill="#FFC804"/>
</g>
<g clip-path="url(#clip16_2001_426)">
<path d="M50 17.27L56.18 21L54.54 13.97L60 9.24L52.81 8.63L50 2L47.19 8.63L40 9.24L45.46 13.97L43.82 21L50 17.27Z" fill="#FFC804"/>
</g>
<g clip-path="url(#clip17_2001_426)">
<path d="M78 17.27L84.18 21L82.54 13.97L88 9.24L80.81 8.63L78 2L75.19 8.63L68 9.24L73.46 13.97L71.82 21L78 17.27Z" fill="#FFC804"/>
</g>
<g clip-path="url(#clip18_2001_426)">
<path d="M106 17.27L112.18 21L110.54 13.97L116 9.24L108.81 8.63L106 2L103.19 8.63L96 9.24L101.46 13.97L99.82 21L106 17.27Z" fill="#FFC804"/>
</g>
<g clip-path="url(#clip19_2001_426)">
<path d="M134 17.27L140.18 21L138.54 13.97L144 9.24L136.81 8.63L134 2L131.19 8.63L124 9.24L129.46 13.97L127.82 21L134 17.27Z" fill="#FFC804"/>
</g>
<g clip-path="url(#clip20_2001_426)">
<path d="M22 188.27L28.18 192L26.54 184.97L32 180.24L24.81 179.63L22 173L19.19 179.63L12 180.24L17.46 184.97L15.82 192L22 188.27Z" fill="#FFC804"/>
</g>
<g clip-path="url(#clip21_2001_426)">
<path d="M60 180.24L52.81 179.62L50 173L47.19 179.63L40 180.24L45.46 184.97L43.82 192L50 188.27L56.18 192L54.55 184.97L60 180.24ZM50 186.4L46.24 188.67L47.24 184.39L43.92 181.51L48.3 181.13L50 177.1L51.71 181.14L56.09 181.52L52.77 184.4L53.77 188.68L50 186.4Z" fill="#323232"/>
</g>
<g clip-path="url(#clip22_2001_426)">
<path d="M88 180.24L80.81 179.62L78 173L75.19 179.63L68 180.24L73.46 184.97L71.82 192L78 188.27L84.18 192L82.55 184.97L88 180.24ZM78 186.4L74.24 188.67L75.24 184.39L71.92 181.51L76.3 181.13L78 177.1L79.71 181.14L84.09 181.52L80.77 184.4L81.77 188.68L78 186.4Z" fill="#323232"/>
</g>
<g clip-path="url(#clip23_2001_426)">
<path d="M116 180.24L108.81 179.62L106 173L103.19 179.63L96 180.24L101.46 184.97L99.82 192L106 188.27L112.18 192L110.55 184.97L116 180.24ZM106 186.4L102.24 188.67L103.24 184.39L99.92 181.51L104.3 181.13L106 177.1L107.71 181.14L112.09 181.52L108.77 184.4L109.77 188.68L106 186.4Z" fill="#323232"/>
</g>
<g clip-path="url(#clip24_2001_426)">
<path d="M144 180.24L136.81 179.62L134 173L131.19 179.63L124 180.24L129.46 184.97L127.82 192L134 188.27L140.18 192L138.55 184.97L144 180.24ZM134 186.4L130.24 188.67L131.24 184.39L127.92 181.51L132.3 181.13L134 177.1L135.71 181.14L140.09 181.52L136.77 184.4L137.77 188.68L134 186.4Z" fill="#323232"/>
</g>
<defs>
<clipPath id="clip0_2001_426">
<rect width="24" height="24" fill="white" transform="translate(10 56)"/>
</clipPath>
<clipPath id="clip1_2001_426">
<rect width="24" height="24" fill="white" transform="translate(38 56)"/>
</clipPath>
<clipPath id="clip2_2001_426">
<rect width="24" height="24" fill="white" transform="translate(66 56)"/>
</clipPath>
<clipPath id="clip3_2001_426">
<rect width="24" height="24" fill="white" transform="translate(94 56)"/>
</clipPath>
<clipPath id="clip4_2001_426">
<rect width="24" height="24" fill="white" transform="translate(122 56)"/>
</clipPath>
<clipPath id="clip5_2001_426">
<rect width="24" height="24" fill="white" transform="translate(10 102)"/>
</clipPath>
<clipPath id="clip6_2001_426">
<rect width="24" height="24" fill="white" transform="translate(38 102)"/>
</clipPath>
<clipPath id="clip7_2001_426">
<rect width="24" height="24" fill="white" transform="translate(66 102)"/>
</clipPath>
<clipPath id="clip8_2001_426">
<rect width="24" height="24" fill="white" transform="translate(94 102)"/>
</clipPath>
<clipPath id="clip9_2001_426">
<rect width="24" height="24" fill="white" transform="translate(122 102)"/>
</clipPath>
<clipPath id="clip10_2001_426">
<rect width="24" height="24" fill="white" transform="translate(10 138)"/>
</clipPath>
<clipPath id="clip11_2001_426">
<rect width="24" height="24" fill="white" transform="translate(38 138)"/>
</clipPath>
<clipPath id="clip12_2001_426">
<rect width="24" height="24" fill="white" transform="translate(66 138)"/>
</clipPath>
<clipPath id="clip13_2001_426">
<rect width="24" height="24" fill="white" transform="translate(94 138)"/>
</clipPath>
<clipPath id="clip14_2001_426">
<rect width="24" height="24" fill="white" transform="translate(122 138)"/>
</clipPath>
<clipPath id="clip15_2001_426">
<rect width="24" height="24" fill="white" transform="translate(10)"/>
</clipPath>
<clipPath id="clip16_2001_426">
<rect width="24" height="24" fill="white" transform="translate(38)"/>
</clipPath>
<clipPath id="clip17_2001_426">
<rect width="24" height="24" fill="white" transform="translate(66)"/>
</clipPath>
<clipPath id="clip18_2001_426">
<rect width="24" height="24" fill="white" transform="translate(94)"/>
</clipPath>
<clipPath id="clip19_2001_426">
<rect width="24" height="24" fill="white" transform="translate(122)"/>
</clipPath>
<clipPath id="clip20_2001_426">
<rect width="24" height="24" fill="white" transform="translate(10 171)"/>
</clipPath>
<clipPath id="clip21_2001_426">
<rect width="24" height="24" fill="white" transform="translate(38 171)"/>
</clipPath>
<clipPath id="clip22_2001_426">
<rect width="24" height="24" fill="white" transform="translate(66 171)"/>
</clipPath>
<clipPath id="clip23_2001_426">
<rect width="24" height="24" fill="white" transform="translate(94 171)"/>
</clipPath>
<clipPath id="clip24_2001_426">
<rect width="24" height="24" fill="white" transform="translate(122 171)"/>
</clipPath>
</defs>
</svg>
